<svg xmlns="http://www.w3.org/2000/svg" xmlns:xlink="http://www.w3.org/1999/xlink" width="500" zoomAndPan="magnify" viewBox="0 0 375 374.999991" height="500" preserveAspectRatio="xMidYMid meet" version="1.0"><defs><g/><clipPath id="1782f02dd6"><path d="M 187.5 0 C 83.945312 0 0 83.945312 0 187.5 C 0 291.054688 83.945312 375 187.5 375 C 291.054688 375 375 291.054688 375 187.5 C 375 83.945312 291.054688 0 187.5 0 Z M 187.5 0 " clip-rule="nonzero"/></clipPath></defs><g clip-path="url(#1782f02dd6)"><rect x="-37.5" width="450" fill="#2b2b2b" y="-37.499999" height="449.999989" fill-opacity="1"/></g><g fill="#e4e2dd" fill-opacity="1"><g transform="translate(158.011368, 226.654742)"><g><path d="M 4.527344 0.242188 C 6.875 0.242188 8.414062 -0.847656 8.414062 -2.554688 C 8.414062 -4.605469 6.441406 -4.914062 4.824219 -5.15625 C 3.539062 -5.347656 2.375 -5.542969 2.375 -6.621094 C 2.375 -7.503906 3.15625 -8.132812 4.453125 -8.132812 C 5.796875 -8.132812 6.671875 -7.425781 6.671875 -6.261719 L 8.160156 -6.261719 C 8.144531 -8.109375 6.671875 -9.339844 4.386719 -9.339844 C 2.167969 -9.339844 0.742188 -8.210938 0.742188 -6.515625 C 0.742188 -4.425781 2.785156 -4.167969 4.386719 -3.9375 C 5.644531 -3.746094 6.800781 -3.566406 6.800781 -2.464844 C 6.800781 -1.550781 5.925781 -0.960938 4.59375 -0.960938 C 3.089844 -0.960938 2.167969 -1.71875 2.167969 -2.949219 L 0.640625 -2.9375 C 0.640625 -1.027344 2.179688 0.242188 4.527344 0.242188 Z M 4.527344 0.242188 "/></g></g></g><g fill="#e4e2dd" fill-opacity="1"><g transform="translate(168.69749, 226.654742)"><g><path d="M 3.234375 0 L 4.847656 0 L 4.847656 -7.734375 L 7.890625 -7.734375 L 7.890625 -9.082031 L 0.207031 -9.082031 L 0.207031 -7.734375 L 3.234375 -7.734375 Z M 3.234375 0 "/></g></g></g><g fill="#e4e2dd" fill-opacity="1"><g transform="translate(178.408651, 226.654742)"><g><path d="M 4.707031 0.242188 C 7.03125 0.242188 8.59375 -1.296875 8.59375 -3.695312 L 8.59375 -9.082031 L 6.980469 -9.082031 L 6.980469 -3.746094 C 6.980469 -2.140625 6.09375 -1.101562 4.707031 -1.101562 C 3.335938 -1.101562 2.449219 -2.128906 2.449219 -3.746094 L 2.449219 -9.082031 L 0.820312 -9.082031 L 0.820312 -3.695312 C 0.820312 -1.296875 2.386719 0.242188 4.707031 0.242188 Z M 4.707031 0.242188 "/></g></g></g><g fill="#e4e2dd" fill-opacity="1"><g transform="translate(189.453967, 226.654742)"><g><path d="M 0.921875 0 L 4.183594 0 C 7.183594 0 9.183594 -1.730469 9.183594 -4.542969 C 9.183594 -7.351562 7.171875 -9.082031 4.183594 -9.082031 L 0.921875 -9.082031 Z M 2.488281 -1.257812 L 2.488281 -7.839844 L 4.183594 -7.839844 C 6.183594 -7.839844 7.570312 -6.59375 7.570312 -4.542969 C 7.570312 -2.488281 6.207031 -1.257812 4.183594 -1.257812 Z M 2.488281 -1.257812 "/></g></g></g><g fill="#e4e2dd" fill-opacity="1"><g transform="translate(200.832834, 226.654742)"><g><path d="M 0.921875 0 L 2.539062 0 L 2.539062 -9.082031 L 0.921875 -9.082031 Z M 0.921875 0 "/></g></g></g><g fill="#e4e2dd" fill-opacity="1"><g transform="translate(205.925733, 226.654742)"><g><path d="M 5.515625 0.242188 C 8.441406 0.242188 10.480469 -1.679688 10.480469 -4.542969 C 10.480469 -7.402344 8.441406 -9.339844 5.515625 -9.339844 C 2.589844 -9.339844 0.550781 -7.402344 0.550781 -4.542969 C 0.550781 -1.679688 2.589844 0.242188 5.515625 0.242188 Z M 5.515625 -1.101562 C 3.566406 -1.101562 2.179688 -2.527344 2.179688 -4.542969 C 2.179688 -6.566406 3.566406 -7.980469 5.515625 -7.980469 C 7.480469 -7.980469 8.863281 -6.566406 8.863281 -4.542969 C 8.863281 -2.515625 7.480469 -1.101562 5.515625 -1.101562 Z M 5.515625 -1.101562 "/></g></g></g><g fill="#e4e2dd" fill-opacity="1"><g transform="translate(174.187158, 245.07371)"><g><path d="M 0.617188 0 L 5.097656 0 L 5.097656 -0.871094 L 1.660156 -0.871094 L 1.660156 -2.738281 L 4.761719 -2.738281 L 4.761719 -3.472656 L 1.660156 -3.472656 L 1.660156 -5.191406 L 5.011719 -5.191406 L 5.011719 -6.054688 L 0.617188 -6.054688 Z M 0.617188 0 "/></g></g></g><g fill="#e4e2dd" fill-opacity="1"><g transform="translate(180.704016, 245.07371)"><g><path d="M 3.019531 0.164062 C 4.585938 0.164062 5.609375 -0.5625 5.609375 -1.703125 C 5.609375 -3.070312 4.292969 -3.277344 3.214844 -3.4375 C 2.359375 -3.566406 1.582031 -3.695312 1.582031 -4.414062 C 1.582031 -5.003906 2.105469 -5.421875 2.96875 -5.421875 C 3.867188 -5.421875 4.445312 -4.953125 4.445312 -4.171875 L 5.4375 -4.171875 C 5.429688 -5.40625 4.445312 -6.226562 2.925781 -6.226562 C 1.445312 -6.226562 0.496094 -5.472656 0.496094 -4.34375 C 0.496094 -2.949219 1.855469 -2.78125 2.925781 -2.625 C 3.761719 -2.496094 4.53125 -2.378906 4.53125 -1.640625 C 4.53125 -1.035156 3.949219 -0.640625 3.0625 -0.640625 C 2.0625 -0.640625 1.445312 -1.144531 1.445312 -1.96875 L 0.425781 -1.957031 C 0.425781 -0.683594 1.453125 0.164062 3.019531 0.164062 Z M 3.019531 0.164062 "/></g></g></g><g fill="#e4e2dd" fill-opacity="1"><g transform="translate(187.828087, 245.07371)"><g><path d="M 2.15625 0 L 3.234375 0 L 3.234375 -5.15625 L 5.257812 -5.15625 L 5.257812 -6.054688 L 0.136719 -6.054688 L 0.136719 -5.15625 L 2.15625 -5.15625 Z M 2.15625 0 "/></g></g></g><g fill="#e4e2dd" fill-opacity="1"><g transform="translate(194.302186, 245.07371)"><g><path d="M 0.617188 0 L 2.789062 0 C 4.789062 0 6.125 -1.15625 6.125 -3.027344 C 6.125 -4.902344 4.78125 -6.054688 2.789062 -6.054688 L 0.617188 -6.054688 Z M 1.660156 -0.839844 L 1.660156 -5.226562 L 2.789062 -5.226562 C 4.121094 -5.226562 5.046875 -4.394531 5.046875 -3.027344 C 5.046875 -1.660156 4.140625 -0.839844 2.789062 -0.839844 Z M 1.660156 -0.839844 "/></g></g></g><g fill="#e4e2dd" fill-opacity="1"><g transform="translate(174.910985, 254.338653)"><g><path d="M 0.425781 0 L 4.703125 0 L 4.703125 -0.804688 L 1.855469 -0.804688 L 1.855469 -0.871094 L 3.574219 -2.273438 C 4.328125 -2.898438 4.832031 -3.480469 4.824219 -4.320312 C 4.824219 -5.421875 3.941406 -6.226562 2.71875 -6.226562 C 1.367188 -6.226562 0.410156 -5.257812 0.4375 -3.933594 L 1.386719 -3.933594 C 1.394531 -4.789062 1.941406 -5.355469 2.703125 -5.355469 C 3.371094 -5.355469 3.839844 -4.890625 3.839844 -4.226562 C 3.839844 -3.703125 3.515625 -3.285156 2.949219 -2.8125 L 0.425781 -0.71875 Z M 0.425781 0 "/></g></g></g><g fill="#e4e2dd" fill-opacity="1"><g transform="translate(181.23114, 254.338653)"><g><path d="M 3.078125 0.164062 C 4.667969 0.164062 5.730469 -1.085938 5.730469 -3.027344 C 5.730469 -4.96875 4.660156 -6.226562 3.078125 -6.226562 C 1.488281 -6.226562 0.425781 -4.976562 0.425781 -3.027344 C 0.425781 -1.09375 1.488281 0.164062 3.078125 0.164062 Z M 3.078125 -0.769531 C 2.128906 -0.769531 1.515625 -1.640625 1.503906 -3.027344 C 1.515625 -4.429688 2.113281 -5.285156 3.078125 -5.285156 C 4.027344 -5.285156 4.652344 -4.414062 4.652344 -3.027344 C 4.652344 -1.652344 4.027344 -0.769531 3.078125 -0.769531 Z M 3.078125 -0.769531 "/></g></g></g><g fill="#e4e2dd" fill-opacity="1"><g transform="translate(188.474943, 254.338653)"><g><path d="M 0.425781 0 L 4.703125 0 L 4.703125 -0.804688 L 1.855469 -0.804688 L 1.855469 -0.871094 L 3.574219 -2.273438 C 4.328125 -2.898438 4.832031 -3.480469 4.824219 -4.320312 C 4.824219 -5.421875 3.941406 -6.226562 2.71875 -6.226562 C 1.367188 -6.226562 0.410156 -5.257812 0.4375 -3.933594 L 1.386719 -3.933594 C 1.394531 -4.789062 1.941406 -5.355469 2.703125 -5.355469 C 3.371094 -5.355469 3.839844 -4.890625 3.839844 -4.226562 C 3.839844 -3.703125 3.515625 -3.285156 2.949219 -2.8125 L 0.425781 -0.71875 Z M 0.425781 0 "/></g></g></g><g fill="#e4e2dd" fill-opacity="1"><g transform="translate(194.795098, 254.338653)"><g><path d="M 3.140625 0 L 4.214844 0 L 4.214844 -1.417969 L 4.941406 -1.417969 L 4.941406 -2.222656 L 4.214844 -2.222656 L 4.214844 -6.054688 L 2.652344 -6.054688 L 0.207031 -2 L 0.207031 -1.417969 L 3.140625 -1.417969 Z M 1.230469 -2.222656 L 3.070312 -5.234375 L 3.140625 -5.234375 L 3.140625 -2.222656 Z M 1.230469 -2.222656 "/></g></g></g><g fill="#e4e2dd" fill-opacity="1"><g transform="translate(39.535971, 205.041344)"><g><path d="M 37.628906 0 L 55.160156 0 L 55.160156 -31.5 C 55.160156 -45.328125 44.757812 -53.878906 28.933594 -45.46875 C 28.933594 -45.46875 37.628906 -46.324219 37.628906 -37.203125 Z M 69.273438 0 L 86.804688 0 L 86.804688 -31.5 C 86.804688 -45.328125 76.542969 -53.878906 60.722656 -45.46875 C 60.722656 -45.46875 69.273438 -46.324219 69.273438 -37.203125 Z M 5.988281 0 L 23.660156 0 L 23.660156 -47.464844 L 5.988281 -47.464844 Z M 5.988281 0 "/></g></g></g><g fill="#e4e2dd" fill-opacity="1"><g transform="translate(125.912131, 205.041344)"><g><path d="M 24.660156 1.710938 C 23.660156 0.996094 21.523438 -1.425781 21.523438 -8.410156 L 21.523438 -38.628906 C 21.523438 -45.613281 23.660156 -48.035156 24.660156 -48.746094 C 12.257812 -47.039062 2.992188 -36.347656 2.992188 -23.804688 C 2.992188 -23.804688 2.992188 -23.660156 2.992188 -23.660156 L 2.992188 -23.234375 C 2.992188 -10.691406 12.257812 0 24.660156 1.710938 Z M 31.644531 1.710938 C 44.1875 0 53.308594 -10.691406 53.308594 -23.234375 C 53.308594 -23.234375 53.308594 -23.375 53.308594 -23.375 L 53.308594 -23.804688 C 53.308594 -36.347656 44.1875 -47.039062 31.644531 -48.746094 C 32.925781 -48.035156 34.921875 -45.613281 34.921875 -38.628906 L 34.921875 -8.410156 C 34.921875 -1.425781 32.925781 0.996094 31.644531 1.710938 Z M 31.644531 1.710938 "/></g></g></g><g fill="#ffbd59" fill-opacity="1"><g transform="translate(176.657055, 205.041344)"><g><path d="M 31.5 -1.566406 C 31.5 -1.566406 22.804688 -0.710938 22.804688 -9.835938 L 22.804688 -66.566406 C 20.667969 -56.300781 13.113281 -48.460938 5.273438 -47.464844 L 5.273438 -15.535156 C 5.273438 -1.710938 15.535156 6.84375 31.5 -1.566406 Z M 31.5 -1.566406 "/></g></g></g><g fill="#e4e2dd" fill-opacity="1"><g transform="translate(200.469554, 205.041344)"><g><path d="M 14.824219 -58.011719 C 19.527344 -58.011719 23.375 -61.859375 23.375 -66.566406 C 23.375 -71.410156 19.527344 -75.261719 14.824219 -75.261719 C 9.976562 -75.261719 6.128906 -71.410156 6.128906 -66.566406 C 6.128906 -61.859375 9.976562 -58.011719 14.824219 -58.011719 Z M 5.988281 0 L 23.660156 0 L 23.660156 -47.464844 L 5.988281 -47.464844 Z M 5.988281 0 "/></g></g></g><g fill="#e4e2dd" fill-opacity="1"><g transform="translate(224.415356, 205.041344)"><g><path d="M 24.660156 1.710938 C 23.660156 0.996094 21.523438 -1.425781 21.523438 -8.410156 L 21.523438 -38.628906 C 21.523438 -45.613281 23.660156 -48.035156 24.660156 -48.746094 C 12.257812 -47.039062 2.992188 -36.347656 2.992188 -23.804688 C 2.992188 -23.804688 2.992188 -23.660156 2.992188 -23.660156 L 2.992188 -23.234375 C 2.992188 -10.691406 12.257812 0 24.660156 1.710938 Z M 31.644531 1.710938 C 44.1875 0 53.308594 -10.691406 53.308594 -23.234375 C 53.308594 -23.234375 53.308594 -23.375 53.308594 -23.375 L 53.308594 -23.804688 C 53.308594 -36.347656 44.1875 -47.039062 31.644531 -48.746094 C 32.925781 -48.035156 34.921875 -45.613281 34.921875 -38.628906 L 34.921875 -8.410156 C 34.921875 -1.425781 32.925781 0.996094 31.644531 1.710938 Z M 31.644531 1.710938 "/></g></g></g><g fill="#e4e2dd" fill-opacity="1"><g transform="translate(275.157757, 205.041344)"><g><path d="M 37.628906 0 L 55.160156 0 L 55.160156 -31.5 C 55.160156 -45.328125 44.757812 -53.878906 28.933594 -45.46875 C 28.933594 -45.46875 37.628906 -46.324219 37.628906 -37.203125 Z M 5.988281 0 L 23.660156 0 L 23.660156 -47.464844 L 5.988281 -47.464844 Z M 5.988281 0 "/></g></g></g></svg>